# xmcd
#
# Track frame offsets: 
#        150
#        31949
#        59625
#        72104
#        92165
#        112993
#        125998
#        141444
#        150683
#        179327
#        188455
#        207297
#        226372
#        244886
#        266359
#        287976
#        307787
#        328715
#
# Disc length: 4673 seconds
#
# Revision: 2
# Processed by: cddbd v1.5.2PL0 Copyright (c) Steve Scherf et al.
# Submitted via: ExactAudioCopy v1.0b1
#
DISCID=09123f12
DTITLE=Various Artist - Geniesser Lounge - Shamrock Tasting - CD 2
DYEAR=2010
DGENRE=Pop
TTITLE0=Clannad - Caislean Oir (Planet Heaven Mix)
TTITLE1=Celtus - Strange Day In The Country
TTITLE2=Innisfree Ceoil - Riverdance
TTITLE3=Davy Spillane - Forever Frozen
TTITLE4=Aoife Ní Fhearraigh - Seacht Suáilcí Na Maighdine Muire
TTITLE5=Jeff Johnson and Brian Dunning - cùChulainn's Last Battle
TTITLE6=Fiona Joyce - Here I Go Again
TTITLE7=Niamh Kavanagh - Red Roses For Me
TTITLE8=Mary Mc Laughlin - Stor Mo Chroí
TTITLE9=Horslips - Flower Amang Them All
TTITLE10=Phil Coulter - The Shores Of The Swilly
TTITLE11=Ceol Na Gcapall - Gleann Seo Na Ndeor
TTITLE12=Nicci Berry - If I Were A Blackbird
TTITLE13=Maighread Ní Dhomhnaill - An Cailin Gaelach
TTITLE14=Eleanor McEvoy - Famine
TTITLE15=The Campbells - Kirsty's Cairn
TTITLE16=Téada - A Sligo Air - Sally Gally
TTITLE17=James Galway and Aoife Ní Fhearraigh - Cailín na Gruaige Baine
EXTD=
EXTT0=
EXTT1=
EXTT2=
EXTT3=
EXTT4=
EXTT5=
EXTT6=
EXTT7=
EXTT8=
EXTT9=
EXTT10=
EXTT11=
EXTT12=
EXTT13=
EXTT14=
EXTT15=
EXTT16=
EXTT17=
PLAYORDER=
